<svg width="24" height="24" viewBox="0 0 24 24" fill="none" xmlns="http://www.w3.org/2000/svg">
  <path
    d="M20 12L20.707 11.293L21.414 12L20.707 12.707L20 12ZM5 13C4.73478 13 4.48043 12.8946 4.29289 12.7071C4.10536 12.5196 4 12.2652 4 12C4 11.7348 4.10536 11.4804 4.29289 11.2929C4.48043 11.1054 4.73478 11 5 11V13ZM14.707 5.293L20.707 11.293L19.293 12.707L13.293 6.707L14.707 5.293ZM20.707 12.707L14.707 18.707L13.293 17.293L19.293 11.293L20.707 12.707ZM20 13H5V11H20V13Z"
    fill="white" />
</svg>