<svg width="100" height="100" viewBox="0 0 100 100" fill="none" xmlns="http://www.w3.org/2000/svg">
<circle cx="50" cy="50" r="50" fill="#E1FBF3"/>
<path d="M66.082 52.1175L63.574 44.5935C63.2101 43.498 62.5103 42.5451 61.574 41.8701C60.6377 41.1951 59.5124 40.8323 58.3581 40.8333H41.6418C40.4875 40.8323 39.3623 41.1951 38.4259 41.8701C37.4896 42.5451 36.7898 43.498 36.426 44.5935L33.918 52.1175C33.251 52.3966 32.6815 52.8665 32.2809 53.4684C31.8803 54.0702 31.6666 54.777 31.6666 55.5V61C31.6666 62.353 32.4073 63.5227 33.5 64.1588V66.5C33.5 66.9862 33.6931 67.4525 34.0369 67.7964C34.3807 68.1402 34.8471 68.3333 35.3333 68.3333H37.1666C37.6529 68.3333 38.1192 68.1402 38.463 67.7964C38.8068 67.4525 39 66.9862 39 66.5V64.6667H61V66.5C61 66.9862 61.1931 67.4525 61.5369 67.7964C61.8807 68.1402 62.3471 68.3333 62.8333 68.3333H64.6666C65.1529 68.3333 65.6192 68.1402 65.963 67.7964C66.3068 67.4525 66.5 66.9862 66.5 66.5V64.1588C67.0562 63.8398 67.5185 63.3799 67.8404 62.8253C68.1622 62.2708 68.3322 61.6412 68.3333 61V55.5C68.3333 53.9765 67.4038 52.673 66.082 52.1175ZM41.6418 44.5H58.3563C58.7412 44.4999 59.1164 44.621 59.4287 44.8461C59.741 45.0711 59.9745 45.3888 60.0961 45.754L62.1238 51.8333H37.8761L39.902 45.754C40.1531 45.0042 40.8535 44.5 41.6418 44.5ZM38.0833 61C37.722 60.9999 37.3643 60.9286 37.0306 60.7902C36.6969 60.6519 36.3937 60.4492 36.1384 60.1936C35.6226 59.6776 35.333 58.9778 35.3333 58.2482C35.3335 57.5186 35.6236 56.819 36.1397 56.3032C36.6557 55.7875 37.3555 55.4979 38.0851 55.4982C38.8147 55.4984 39.5143 55.7885 40.03 56.3045C40.5458 56.8206 40.8354 57.5204 40.8351 58.25C40.8349 58.9796 40.5448 59.6792 40.0288 60.1949C39.5127 60.7106 38.8129 61.0002 38.0833 61ZM61.9166 61C61.187 60.9998 60.4874 60.7097 59.9717 60.1936C59.456 59.6776 59.1664 58.9778 59.1666 58.2482C59.1669 57.5186 59.4569 56.819 59.973 56.3032C60.4891 55.7875 61.1889 55.4979 61.9185 55.4982C62.648 55.4984 63.3477 55.7885 63.8634 56.3045C64.3791 56.8206 64.6687 57.5204 64.6685 58.25C64.6682 58.9796 64.3782 59.6792 63.8621 60.1949C63.346 60.7106 62.6462 61.0002 61.9166 61ZM44.5 36.0263C44.5091 34.0317 42.5988 32.2662 41.9571 31.729C41.8988 31.6794 41.8247 31.6522 41.7481 31.6522C41.6715 31.6522 41.5975 31.6794 41.5391 31.729C40.8938 32.2625 38.9908 33.9968 39 36.0245C39 37.6653 40.2338 39 41.75 39C43.2661 39 44.5 37.6653 44.5 36.0263ZM52.75 36.0263C52.7591 34.0317 50.8488 32.2643 50.2071 31.729C50.1488 31.6794 50.0747 31.6522 49.9981 31.6522C49.9215 31.6522 49.8475 31.6794 49.7891 31.729C49.142 32.2625 47.239 33.9987 47.2481 36.0263C47.25 37.6653 48.4838 39 50 39C51.5161 39 52.75 37.6653 52.75 36.0263ZM61 36.0263C61.0091 34.0317 59.0988 32.2643 58.4571 31.729C58.3988 31.6794 58.3247 31.6522 58.2481 31.6522C58.1716 31.6522 58.0975 31.6794 58.0391 31.729C57.3938 32.2625 55.4908 33.9968 55.5 36.0245C55.5 37.6653 56.7338 39 58.25 39C59.7661 39 61 37.6653 61 36.0263Z" fill="#09C690"/>
</svg>
