<svg width="100" height="100" viewBox="0 0 100 100" fill="none" xmlns="http://www.w3.org/2000/svg">
<circle cx="50" cy="50" r="50" fill="#E1FBF3"/>
<path d="M47.0229 33.3317C47.398 32.9127 47.8574 32.5776 48.3708 32.3481C48.8843 32.1186 49.4404 32 50.0029 32C50.5653 32 51.1214 32.1186 51.6349 32.3481C52.1484 32.5776 52.6077 32.9127 52.9829 33.3317L54.3829 34.8957C54.783 35.3427 55.2785 35.694 55.8328 35.9235C56.3871 36.1531 56.9859 36.255 57.5849 36.2217L59.6849 36.1057C60.2465 36.0748 60.8085 36.1626 61.3339 36.3636C61.8593 36.5645 62.3364 36.8741 62.7341 37.2719C63.1318 37.6698 63.4411 38.1471 63.6418 38.6726C63.8425 39.1981 63.9301 39.7601 63.8989 40.3217L63.7829 42.4197C63.7499 43.0184 63.852 43.6168 64.0815 44.1707C64.311 44.7246 64.6621 45.2198 65.1089 45.6197L66.6729 47.0197C67.0922 47.3949 67.4277 47.8544 67.6573 48.368C67.887 48.8817 68.0057 49.4381 68.0057 50.0007C68.0057 50.5634 67.887 51.1198 67.6573 51.6334C67.4277 52.1471 67.0922 52.6066 66.6729 52.9817L65.1089 54.3817C64.6619 54.7819 64.3106 55.2774 64.0811 55.8317C63.8515 56.3859 63.7496 56.9847 63.7829 57.5837L63.8989 59.6837C63.9298 60.2454 63.842 60.8073 63.641 61.3328C63.4401 61.8582 63.1306 62.3353 62.7327 62.733C62.3348 63.1307 61.8575 63.44 61.332 63.6407C60.8065 63.8414 60.2445 63.929 59.6829 63.8977L57.5849 63.7817C56.9862 63.7488 56.3878 63.8509 55.8339 64.0804C55.28 64.3099 54.7848 64.661 54.3849 65.1077L52.9849 66.6717C52.6097 67.0911 52.1502 67.4265 51.6366 67.6562C51.1229 67.8859 50.5665 68.0046 50.0039 68.0046C49.4412 68.0046 48.8848 67.8859 48.3712 67.6562C47.8575 67.4265 47.398 67.0911 47.0229 66.6717L45.6229 65.1077C45.2227 64.6608 44.7272 64.3095 44.1729 64.08C43.6187 63.8504 43.0199 63.7485 42.4209 63.7817L40.3209 63.8977C39.7592 63.9287 39.1973 63.8408 38.6718 63.6399C38.1464 63.439 37.6693 63.1294 37.2716 62.7316C36.8739 62.3337 36.5646 61.8564 36.3639 61.3309C36.1632 60.8054 36.0756 60.2434 36.1069 59.6817L36.2229 57.5837C36.2558 56.9851 36.1537 56.3867 35.9242 55.8328C35.6947 55.2789 35.3436 54.7837 34.8969 54.3837L33.3329 52.9837C32.9135 52.6086 32.5781 52.1491 32.3484 51.6354C32.1187 51.1218 32 50.5654 32 50.0027C32 49.4401 32.1187 48.8837 32.3484 48.37C32.5781 47.8564 32.9135 47.3969 33.3329 47.0217L34.8969 45.6217C35.3439 45.2216 35.6951 44.7261 35.9246 44.1718C36.1542 43.6175 36.2561 43.0187 36.2229 42.4197L36.1069 40.3197C36.0762 39.7582 36.1643 39.1965 36.3653 38.6713C36.5664 38.1462 36.876 37.6693 37.2738 37.2718C37.6717 36.8743 38.1488 36.5652 38.6742 36.3647C39.1996 36.1641 39.7614 36.0765 40.3229 36.1077L42.4209 36.2237C43.0195 36.2567 43.6179 36.1546 44.1718 35.9251C44.7257 35.6956 45.221 35.3445 45.6209 34.8977L47.0229 33.3317Z" stroke="#09C690" stroke-width="4"/>
<path d="M45.0028 45.0017H45.0228V45.0217H45.0028V45.0017ZM55.0028 55.0017H55.0228V55.0217H55.0028V55.0017Z" stroke="#09C690" stroke-width="4" stroke-linejoin="round"/>
<path d="M56.0028 44.0017L44.0028 56.0017" stroke="#09C690" stroke-width="4" stroke-linecap="round" stroke-linejoin="round"/>
</svg>
