<svg width="100" height="100" viewBox="0 0 100 100" fill="none" xmlns="http://www.w3.org/2000/svg">
<circle cx="50" cy="50" r="50" fill="#E1FBF3"/>
<path d="M62.5097 48.6716C60.8998 45.3343 60.6381 41.3618 60.8683 37.9354C61.1083 34.3636 61.8783 31.4504 62.1399 30.6017L62.2873 30.1239L61.8095 29.9765L57.8252 28.7481L57.3474 28.6008L57.2001 29.0786L55.7095 33.9132L46.0404 30.9321L47.531 26.0975L47.6783 25.6197L47.2005 25.4724L42.3895 23.9892C43.3827 21.6277 46.047 20.3459 48.5437 21.1157L66.6592 26.7009L65.9875 28.8793C65.9502 29.0005 65.0207 32.1118 64.5021 35.9608C64.2428 37.8856 64.0845 40.0074 64.196 42.039C64.297 43.8797 64.6208 45.6754 65.3138 47.189L62.5097 48.6716ZM43.4363 39.3784L44.9269 34.5439L54.6119 37.5299C54.5535 37.7617 54.4808 38.0718 54.4045 38.4491C54.2278 39.3236 54.0317 40.5613 53.9527 42.0205C53.7977 44.883 54.0916 48.6318 55.9005 52.162L49.4095 73.2154C48.59 75.8733 45.7423 77.3788 43.0844 76.5594L32.4597 73.2836C29.8018 72.4642 28.2962 69.6164 29.1157 66.9585L34.8478 48.3668L34.8478 48.3667L34.848 48.3661L34.8481 48.3657L34.8482 48.3653L34.8483 48.3652L34.8533 48.3503C34.8583 48.3357 34.8669 48.3116 34.8793 48.279C34.9043 48.2138 34.945 48.1145 35.0048 47.9876C35.1246 47.7339 35.3208 47.3709 35.621 46.9511C36.2203 46.113 37.237 45.0448 38.8981 44.1666L38.9113 44.1596C39.7689 43.7062 40.4301 43.3567 40.9429 43.05C41.4596 42.7411 41.8552 42.4588 42.169 42.1304C42.788 41.4826 43.0258 40.7109 43.406 39.4766C43.416 39.4442 43.4261 39.4115 43.4363 39.3784ZM70.6283 32.6955L68.9277 32.1712L70.2709 27.8144L71.9715 28.3387L70.6283 32.6955Z" fill="#09C690" stroke="#09C690"/>
<mask id="path-3-inside-1_15_125" fill="white">
<path d="M67.4 69.5927C66.65 68.8427 66.0623 67.976 65.637 66.9927C65.2117 66.0093 64.9993 64.9927 65 63.9427C65.0007 62.8927 65.2007 61.8553 65.6 60.8307C65.9993 59.806 66.6493 58.8433 67.55 57.9427C68.1333 57.3593 68.8543 56.8593 69.713 56.4427C70.5717 56.026 71.5883 55.697 72.763 55.4557C73.9377 55.2143 75.2793 55.0683 76.788 55.0177C78.2967 54.967 79.984 55.0253 81.85 55.1927C81.9833 56.9593 82.025 58.5843 81.975 60.0677C81.925 61.551 81.7873 62.8887 81.562 64.0807C81.3367 65.2727 81.02 66.314 80.612 67.2047C80.204 68.0953 79.7 68.8413 79.1 69.4427C78.2167 70.326 77.2793 70.972 76.288 71.3807C75.2967 71.7893 74.284 71.9933 73.25 71.9927C72.1667 71.9927 71.1083 71.78 70.075 71.3547C69.0417 70.9293 68.15 70.342 67.4 69.5927ZM70.2 69.1927C70.6833 69.476 71.1793 69.6803 71.688 69.8057C72.1967 69.931 72.7173 69.9933 73.25 69.9927C74.0167 69.9927 74.775 69.8387 75.525 69.5307C76.275 69.2227 76.9917 68.7267 77.675 68.0427C77.975 67.7427 78.2793 67.3217 78.588 66.7797C78.8967 66.2377 79.1633 65.5297 79.388 64.6557C79.6127 63.7817 79.7833 62.7233 79.9 61.4807C80.0167 60.238 80.0333 58.7587 79.95 57.0427C79.1333 57.0093 78.2127 56.997 77.188 57.0057C76.1633 57.0143 75.1423 57.0933 74.125 57.2427C73.1077 57.392 72.141 57.6337 71.225 57.9677C70.309 58.3017 69.559 58.76 68.975 59.3427C68.225 60.0927 67.7083 60.8343 67.425 61.5677C67.1417 62.301 67 63.0093 67 63.6927C67 64.676 67.1877 65.5387 67.563 66.2807C67.9383 67.0227 68.2673 67.5433 68.55 67.8427C69.25 66.5093 70.175 65.23 71.325 64.0047C72.475 62.7793 73.8167 61.7753 75.35 60.9927C74.15 62.0427 73.1043 63.2303 72.213 64.5557C71.3217 65.881 70.6507 67.4267 70.2 69.1927Z"/>
</mask>
<path d="M67.4 69.5927C66.65 68.8427 66.0623 67.976 65.637 66.9927C65.2117 66.0093 64.9993 64.9927 65 63.9427C65.0007 62.8927 65.2007 61.8553 65.6 60.8307C65.9993 59.806 66.6493 58.8433 67.55 57.9427C68.1333 57.3593 68.8543 56.8593 69.713 56.4427C70.5717 56.026 71.5883 55.697 72.763 55.4557C73.9377 55.2143 75.2793 55.0683 76.788 55.0177C78.2967 54.967 79.984 55.0253 81.85 55.1927C81.9833 56.9593 82.025 58.5843 81.975 60.0677C81.925 61.551 81.7873 62.8887 81.562 64.0807C81.3367 65.2727 81.02 66.314 80.612 67.2047C80.204 68.0953 79.7 68.8413 79.1 69.4427C78.2167 70.326 77.2793 70.972 76.288 71.3807C75.2967 71.7893 74.284 71.9933 73.25 71.9927C72.1667 71.9927 71.1083 71.78 70.075 71.3547C69.0417 70.9293 68.15 70.342 67.4 69.5927ZM70.2 69.1927C70.6833 69.476 71.1793 69.6803 71.688 69.8057C72.1967 69.931 72.7173 69.9933 73.25 69.9927C74.0167 69.9927 74.775 69.8387 75.525 69.5307C76.275 69.2227 76.9917 68.7267 77.675 68.0427C77.975 67.7427 78.2793 67.3217 78.588 66.7797C78.8967 66.2377 79.1633 65.5297 79.388 64.6557C79.6127 63.7817 79.7833 62.7233 79.9 61.4807C80.0167 60.238 80.0333 58.7587 79.95 57.0427C79.1333 57.0093 78.2127 56.997 77.188 57.0057C76.1633 57.0143 75.1423 57.0933 74.125 57.2427C73.1077 57.392 72.141 57.6337 71.225 57.9677C70.309 58.3017 69.559 58.76 68.975 59.3427C68.225 60.0927 67.7083 60.8343 67.425 61.5677C67.1417 62.301 67 63.0093 67 63.6927C67 64.676 67.1877 65.5387 67.563 66.2807C67.9383 67.0227 68.2673 67.5433 68.55 67.8427C69.25 66.5093 70.175 65.23 71.325 64.0047C72.475 62.7793 73.8167 61.7753 75.35 60.9927C74.15 62.0427 73.1043 63.2303 72.213 64.5557C71.3217 65.881 70.6507 67.4267 70.2 69.1927Z" fill="#09C690"/>
<path d="M67.4 69.5927L63.8645 73.1282L63.866 73.1298L67.4 69.5927ZM81.85 55.1927L86.8358 54.8164L86.5169 50.5911L82.2966 50.2126L81.85 55.1927ZM79.1 69.4427L82.6355 72.9782L82.6395 72.9743L79.1 69.4427ZM73.25 71.9927L73.2532 66.9927H73.25V71.9927ZM70.2 69.1927L65.3553 67.9563L64.4247 71.6029L67.6714 73.5062L70.2 69.1927ZM73.25 69.9927V64.9927L73.2437 64.9927L73.25 69.9927ZM77.675 68.0427L74.1395 64.5071L74.1377 64.5089L77.675 68.0427ZM79.95 57.0427L84.9441 56.8001L84.7223 52.2333L80.1539 52.0468L79.95 57.0427ZM68.975 59.3427L65.4435 55.8031L65.4395 55.8071L68.975 59.3427ZM67 63.6927H62H67ZM68.55 67.8427L64.9147 71.2755L69.7222 76.3665L72.977 70.1668L68.55 67.8427ZM75.35 60.9927L78.6425 64.7555L73.0768 56.5393L75.35 60.9927ZM70.9355 66.0571C70.6359 65.7575 70.4037 65.4184 70.2261 65.0077L61.0479 68.9776C61.7209 70.5336 62.6641 71.9278 63.8645 73.1282L70.9355 66.0571ZM70.2261 65.0077C70.0666 64.6389 69.9998 64.2978 70 63.9458L60 63.9395C59.9989 65.6875 60.3568 67.3798 61.0479 68.9776L70.2261 65.0077ZM70 63.9458C70.0003 63.545 70.0737 63.1209 70.2587 62.6463L60.9413 59.0151C60.3276 60.5897 60.0011 62.2403 60 63.9395L70 63.9458ZM70.2587 62.6463C70.3701 62.3605 70.5974 61.9663 71.0855 61.4782L64.0145 54.4071C62.7012 55.7204 61.6286 57.2515 60.9413 59.0151L70.2587 62.6463ZM71.0855 61.4782C71.2184 61.3454 71.4614 61.1519 71.8958 60.941L67.5302 51.9443C66.2473 52.5668 65.0483 53.3733 64.0145 54.4071L71.0855 61.4782ZM71.8958 60.941C72.2993 60.7452 72.9029 60.5314 73.7692 60.3534L71.7568 50.558C70.2738 50.8626 68.844 51.3067 67.5302 51.9443L71.8958 60.941ZM73.7692 60.3534C74.6078 60.1811 75.6603 60.0584 76.9558 60.0148L76.6202 50.0205C74.8984 50.0783 73.2676 50.2476 71.7568 50.558L73.7692 60.3534ZM76.9558 60.0148C78.2177 59.9725 79.6952 60.0195 81.4034 60.1727L82.2966 50.2126C80.2728 50.0312 78.3757 49.9615 76.6202 50.0205L76.9558 60.0148ZM76.8642 55.569C76.9864 57.1879 77.0207 58.6283 76.9778 59.8992L86.9722 60.2361C87.0293 58.5404 86.9803 56.7308 86.8358 54.8164L76.8642 55.569ZM76.9778 59.8992C76.9346 61.1815 76.8178 62.2589 76.649 63.1519L86.475 65.0094C86.7568 63.5184 86.9154 61.9205 86.9722 60.2361L76.9778 59.8992ZM76.649 63.1519C76.4819 64.0362 76.2712 64.6749 76.0662 65.1223L85.1578 69.287C85.7688 67.953 86.1915 66.5092 86.475 65.0094L76.649 63.1519ZM76.0662 65.1223C75.8679 65.5554 75.683 65.7883 75.5605 65.9111L82.6395 72.9743C83.717 71.8943 84.5402 70.6352 85.1578 69.287L76.0662 65.1223ZM75.5645 65.9071C75.0714 66.4002 74.672 66.6387 74.3824 66.758L78.1936 76.0033C79.8867 75.3053 81.3619 74.2518 82.6355 72.9782L75.5645 65.9071ZM74.3824 66.758C73.9736 66.9266 73.6081 66.9929 73.2532 66.9927L73.2468 76.9927C74.9599 76.9938 76.6197 76.6521 78.1936 76.0033L74.3824 66.758ZM73.25 66.9927C72.8402 66.9927 72.4272 66.9158 71.9781 66.731L68.1719 75.9783C69.7895 76.6441 71.4931 76.9927 73.25 76.9927V66.9927ZM71.9781 66.731C71.5213 66.543 71.1924 66.3138 70.934 66.0556L63.866 73.1298C65.1076 74.3702 66.562 75.3157 68.1719 75.9783L71.9781 66.731ZM67.6714 73.5062C68.5417 74.0163 69.4839 74.4121 70.4918 74.6605L72.8842 64.9509C72.8748 64.9485 72.825 64.9357 72.7286 64.8792L67.6714 73.5062ZM70.4918 74.6605C71.4005 74.8844 72.3252 74.9938 73.2563 74.9927L73.2437 64.9927C73.1095 64.9928 72.9928 64.9776 72.8842 64.9509L70.4918 74.6605ZM73.25 74.9927C74.7052 74.9927 76.1069 74.6969 77.4244 74.1558L73.6256 64.9055C73.4431 64.9804 73.3282 64.9927 73.25 64.9927V74.9927ZM77.4244 74.1558C78.8932 73.5526 80.1491 72.6407 81.2123 71.5765L74.1377 64.5089C73.8343 64.8126 73.6568 64.8927 73.6256 64.9055L77.4244 74.1558ZM81.2105 71.5782C81.9368 70.8519 82.4964 70.0203 82.9328 69.254L74.2432 64.3053C74.1611 64.4495 74.1041 64.5339 74.0761 64.5727C74.0466 64.6136 74.0652 64.5814 74.1395 64.5071L81.2105 71.5782ZM82.9328 69.254C83.5352 68.1963 83.94 67.0309 84.2306 65.9005L74.5454 63.4109C74.4699 63.7048 74.3992 63.9238 74.3404 64.0798C74.3115 64.1566 74.2874 64.213 74.2696 64.2515C74.2518 64.2902 74.2423 64.3068 74.2432 64.3053L82.9328 69.254ZM84.2306 65.9005C84.5403 64.6955 84.7454 63.3615 84.8781 61.948L74.9219 61.0133C74.8213 62.0852 74.685 62.8678 74.5454 63.4109L84.2306 65.9005ZM84.8781 61.948C85.0234 60.4003 85.035 58.6716 84.9441 56.8001L74.9559 57.2852C75.0317 58.8457 75.0099 60.0757 74.9219 61.0133L84.8781 61.948ZM80.1539 52.0468C79.2378 52.0094 78.2329 51.9966 77.1457 52.0058L77.2303 62.0055C78.1924 61.9973 79.0289 62.0092 79.7461 62.0385L80.1539 52.0468ZM77.1457 52.0058C75.8914 52.0165 74.6419 52.1132 73.3988 52.2957L74.8512 62.1897C75.6428 62.0734 76.4353 62.0122 77.2303 62.0055L77.1457 52.0058ZM73.3988 52.2957C72.0633 52.4917 70.7646 52.8135 69.5122 53.2702L72.9378 62.6651C73.5174 62.4538 74.1521 62.2923 74.8512 62.1897L73.3988 52.2957ZM69.5122 53.2702C68.0359 53.8085 66.6275 54.6218 65.4435 55.8031L72.5065 62.8822C72.4905 62.8982 72.5821 62.7948 72.9378 62.6651L69.5122 53.2702ZM65.4395 55.8071C64.3592 56.8874 63.367 58.1973 62.761 59.7657L72.089 63.3697C72.0669 63.4269 72.0647 63.4098 72.1276 63.3194C72.1913 63.2281 72.3094 63.0794 72.5105 62.8782L65.4395 55.8071ZM62.761 59.7657C62.2886 60.9884 62 62.3077 62 63.6927H72C72 63.711 71.9947 63.6136 72.089 63.3697L62.761 59.7657ZM62 63.6927C62 65.3177 62.3129 66.979 63.1013 68.5376L72.0247 64.0238C72.0398 64.0538 72.0357 64.0567 72.0265 64.0143C72.0166 63.9691 72 63.8668 72 63.6927H62ZM63.1013 68.5376C63.52 69.3651 64.113 70.4266 64.9147 71.2755L72.1853 64.4098C72.2745 64.5042 72.3245 64.5701 72.3371 64.5871C72.3514 64.6062 72.3448 64.5991 72.3181 64.5568C72.2618 64.4677 72.1637 64.2986 72.0247 64.0238L63.1013 68.5376ZM72.977 70.1668C73.4447 69.276 74.0943 68.3603 74.9708 67.4263L67.6792 60.583C66.2557 62.0997 65.0553 63.7426 64.123 65.5185L72.977 70.1668ZM74.9708 67.4263C75.7165 66.6318 76.5907 65.9731 77.6232 65.4461L73.0768 56.5393C71.0426 57.5776 69.2335 58.9268 67.6792 60.583L74.9708 67.4263ZM72.0575 57.2298C70.5305 58.5659 69.197 60.0806 68.064 61.7653L76.362 67.346C77.0116 66.38 77.7695 65.5194 78.6425 64.7555L72.0575 57.2298ZM68.064 61.7653C66.812 63.6269 65.9276 65.7135 65.3553 67.9563L75.0447 70.429C75.3737 69.1398 75.8313 68.1351 76.362 67.346L68.064 61.7653Z" fill="#09C690" mask="url(#path-3-inside-1_15_125)"/>
</svg>
